<svg width="71" height="56" viewBox="0 0 71 56" fill="none" xmlns="http://www.w3.org/2000/svg">
<path d="M28.4009 33.7568C27.4697 35.7601 28.3389 38.139 30.3422 39.0701C32.3455 40.0013 34.7244 39.1321 35.6555 37.1288L28.4009 33.7568ZM46.6429 4L50.3324 2.45476C49.7204 0.993559 48.3037 0.0312077 46.7198 0.000739848C45.1359 -0.029728 43.6833 0.877429 43.0156 2.31401L46.6429 4ZM63.0569 53.5452C63.9104 55.5829 66.254 56.5429 68.2917 55.6895C70.3293 54.8361 71.2893 52.4924 70.4359 50.4548L63.0569 53.5452ZM42.9534 5.54524L63.0569 53.5452L70.4359 50.4548L50.3324 2.45476L42.9534 5.54524ZM35.6555 37.1288L42.9629 21.4074L35.7082 18.0354L28.4009 33.7568L35.6555 37.1288ZM42.9629 21.4074L50.2702 5.68599L43.0156 2.31401L35.7082 18.0354L42.9629 21.4074Z" fill="#ECE0CB"/>
<path d="M0.37268 33.7568C-0.558464 35.7601 0.310701 38.139 2.31401 39.0701C4.31733 40.0013 6.69618 39.1321 7.62732 37.1288L0.37268 33.7568ZM18.6147 4L22.3042 2.45476C21.6922 0.993559 20.2755 0.0312077 18.6916 0.000739848C17.1077 -0.029728 15.6551 0.877429 14.9874 2.31401L18.6147 4ZM35.0287 53.5452C35.8822 55.5829 38.2258 56.5429 40.2635 55.6895C42.3011 54.8361 43.2611 52.4924 42.4077 50.4548L35.0287 53.5452ZM14.9252 5.54524L35.0287 53.5452L42.4077 50.4548L22.3042 2.45476L14.9252 5.54524ZM7.62732 37.1288L14.9347 21.4074L7.68002 18.0354L0.37268 33.7568L7.62732 37.1288ZM14.9347 21.4074L22.242 5.68599L14.9874 2.31401L7.68002 18.0354L14.9347 21.4074Z" fill="#393d3f"/>
</svg>
