<svg width="80" height="80" viewBox="0 0 80 80" fill="none" xmlns="http://www.w3.org/2000/svg">
<circle cx="40" cy="40" r="40" fill="#3A352C"/>
<path d="M33.0472 44.8728C32.1161 46.8761 32.9853 49.255 34.9886 50.1861C36.9919 51.1173 39.3707 50.2481 40.3019 48.2448L33.0472 44.8728ZM49.0191 20L52.7086 18.4548C52.0966 16.9936 50.68 16.0312 49.0961 16.0007C47.5122 15.9703 46.0596 16.8774 45.3918 18.314L49.0191 20ZM62.3105 62.0894C63.1639 64.127 65.5076 65.087 67.5452 64.2336C69.5829 63.3802 70.5429 61.0366 69.6895 58.9989L62.3105 62.0894ZM45.3297 21.5452L62.3105 62.0894L69.6895 58.9989L52.7086 18.4548L45.3297 21.5452ZM40.3019 48.2448L46.4742 34.9654L39.2195 31.5934L33.0472 44.8728L40.3019 48.2448ZM46.4742 34.9654L52.6465 21.686L45.3918 18.314L39.2195 31.5934L46.4742 34.9654Z" fill="#FFFEFC"/>
<path d="M9.37268 44.8728C8.44154 46.8761 9.3107 49.255 11.314 50.1861C13.3173 51.1173 15.6962 50.2481 16.6273 48.2448L9.37268 44.8728ZM25.3446 20L29.0341 18.4548C28.4221 16.9936 27.0054 16.0312 25.4215 16.0007C23.8376 15.9703 22.385 16.8774 21.7173 18.314L25.3446 20ZM38.636 62.0894C39.4894 64.127 41.833 65.087 43.8707 64.2336C45.9083 63.3802 46.8683 61.0366 46.0149 58.9989L38.636 62.0894ZM21.6551 21.5452L38.636 62.0894L46.0149 58.9989L29.0341 18.4548L21.6551 21.5452ZM16.6273 48.2448L22.7996 34.9654L15.545 31.5934L9.37268 44.8728L16.6273 48.2448ZM22.7996 34.9654L28.9719 21.686L21.7173 18.314L15.545 31.5934L22.7996 34.9654Z" fill="#ECE0CB"/>
</svg>
