<svg width="70" height="14" viewBox="0 0 70 14" fill="none" xmlns="http://www.w3.org/2000/svg">
<path d="M6.52829 1.34212C6.68491 0.896512 7.3151 0.896512 7.47171 1.34212L8.54362 4.39192C8.61255 4.58803 8.79561 4.72104 9.00342 4.72599L12.2352 4.80299C12.7074 4.81424 12.9021 5.41359 12.5267 5.70024L9.95743 7.66213C9.79222 7.78828 9.7223 8.00349 9.7818 8.20266L10.7072 11.3001C10.8425 11.7526 10.3326 12.123 9.94399 11.8546L7.28417 10.0173C7.11314 9.89915 6.88686 9.89915 6.71583 10.0173L4.05601 11.8546C3.66738 12.123 3.15754 11.7526 3.29276 11.3001L4.2182 8.20266C4.2777 8.00349 4.20778 7.78828 4.04257 7.66213L1.47327 5.70025C1.09787 5.41359 1.29261 4.81424 1.76481 4.80299L4.99658 4.72599C5.20439 4.72104 5.38745 4.58803 5.45638 4.39192L6.52829 1.34212Z" fill="#748b75"/>
<path d="M20.5283 1.34212C20.6849 0.896512 21.3151 0.896512 21.4717 1.34212L22.5436 4.39192C22.6125 4.58803 22.7956 4.72104 23.0034 4.72599L26.2352 4.80299C26.7074 4.81424 26.9021 5.41359 26.5267 5.70024L23.9574 7.66213C23.7922 7.78828 23.7223 8.00349 23.7818 8.20266L24.7072 11.3001C24.8425 11.7526 24.3326 12.123 23.944 11.8546L21.2842 10.0173C21.1131 9.89915 20.8869 9.89915 20.7158 10.0173L18.056 11.8546C17.6674 12.123 17.1575 11.7526 17.2928 11.3001L18.2182 8.20266C18.2777 8.00349 18.2078 7.78828 18.0426 7.66213L15.4733 5.70025C15.0979 5.41359 15.2926 4.81424 15.7648 4.80299L18.9966 4.72599C19.2044 4.72104 19.3875 4.58803 19.4564 4.39192L20.5283 1.34212Z" fill="#748b75"/>
<path d="M34.5283 1.34212C34.6849 0.896512 35.3151 0.896512 35.4717 1.34212L36.5436 4.39192C36.6125 4.58803 36.7956 4.72104 37.0034 4.72599L40.2352 4.80299C40.7074 4.81424 40.9021 5.41359 40.5267 5.70024L37.9574 7.66213C37.7922 7.78828 37.7223 8.00349 37.7818 8.20266L38.7072 11.3001C38.8425 11.7526 38.3326 12.123 37.944 11.8546L35.2842 10.0173C35.1131 9.89915 34.8869 9.89915 34.7158 10.0173L32.056 11.8546C31.6674 12.123 31.1575 11.7526 31.2928 11.3001L32.2182 8.20266C32.2777 8.00349 32.2078 7.78828 32.0426 7.66213L29.4733 5.70025C29.0979 5.41359 29.2926 4.81424 29.7648 4.80299L32.9966 4.72599C33.2044 4.72104 33.3875 4.58803 33.4564 4.39192L34.5283 1.34212Z" fill="#748b75"/>
<path d="M48.5283 1.34212C48.6849 0.896512 49.3151 0.896512 49.4717 1.34212L50.5436 4.39192C50.6125 4.58803 50.7956 4.72104 51.0034 4.72599L54.2352 4.80299C54.7074 4.81424 54.9021 5.41359 54.5267 5.70024L51.9574 7.66213C51.7922 7.78828 51.7223 8.00349 51.7818 8.20266L52.7072 11.3001C52.8425 11.7526 52.3326 12.123 51.944 11.8546L49.2842 10.0173C49.1131 9.89915 48.8869 9.89915 48.7158 10.0173L46.056 11.8546C45.6674 12.123 45.1575 11.7526 45.2928 11.3001L46.2182 8.20266C46.2777 8.00349 46.2078 7.78828 46.0426 7.66213L43.4733 5.70025C43.0979 5.41359 43.2926 4.81424 43.7648 4.80299L46.9966 4.72599C47.2044 4.72104 47.3875 4.58803 47.4564 4.39192L48.5283 1.34212Z" fill="#748b75"/>
<path d="M63 1.50791L64.0719 4.55772C64.2098 4.94993 64.5759 5.21595 64.9915 5.22585L68.2233 5.30285L65.654 7.26474C65.3236 7.51704 65.1837 7.94746 65.3027 8.3458L66.2282 11.4432L63.5683 9.6059C63.2263 9.36962 62.7737 9.36962 62.4317 9.6059L59.7718 11.4432L60.6973 8.3458C60.8163 7.94746 60.6764 7.51704 60.346 7.26474L57.7767 5.30285L61.0085 5.22585C61.4241 5.21595 61.7902 4.94993 61.9281 4.55772L63 1.50791Z" stroke="#748b75"/>
</svg>
